<svg width="112" height="38" viewBox="0 0 112 38" fill="none" xmlns="http://www.w3.org/2000/svg">
<path d="M109.656 31.043C109.645 31.0478 109.634 31.051 109.622 31.051H103.673C102.512 34.9995 98.862 37.8803 94.5386 37.8803C90.2151 37.8803 86.5654 34.9997 85.4055 31.051H29.5532C28.3932 34.9995 24.7434 37.8803 20.42 37.8803C16.0965 37.8803 12.4467 34.9997 11.2853 31.051H4.95505C3.33281 31.051 1.98849 29.791 1.88209 28.1702L1.49281 22.2165C1.46737 21.8224 1.51826 21.4285 1.6405 21.0534L3.17857 16.3771L2.37937 12.0249C2.20465 11.0733 2.7925 10.1485 3.72674 9.90062L5.9893 9.30142L5.9901 9.30126L4.93842 5.38238L4.05745 5.26158C1.69985 4.93806 0.0507278 2.76478 0.374092 0.407016C0.399048 0.224936 0.566895 0.0977345 0.748817 0.122695L6.53986 0.917255C8.89745 1.24078 10.5466 3.41406 10.2232 5.77182C10.1983 5.9539 10.0304 6.08126 9.8485 6.05614L7.5573 5.7419L8.34722 8.68526C26.5976 4.02653 45.4692 2.26286 64.2709 3.46094C65.3356 3.52926 66.3874 3.70413 67.4122 3.98045C68.4372 4.25853 69.4349 4.63982 70.3868 5.11982L84.8174 12.3781C86.1106 13.0278 87.4868 13.4982 88.9073 13.7763L102.203 16.3678C104.309 16.7793 106.182 17.9726 107.442 19.7078L109.64 22.7331C110.862 23.2129 111.666 24.392 111.666 25.7045V28.0211C111.666 29.3414 110.873 30.5329 109.656 31.043ZM9.73457 19.4536L9.1197 17.8694C9.04498 17.6787 8.8909 17.5309 8.69698 17.4641L6.01169 16.5425C5.62881 16.4107 5.21249 16.6347 5.11234 17.0288L4.50209 19.4281C4.39249 19.8603 4.71186 20.2813 5.15681 20.2941L9.06882 20.4005C9.56466 20.4149 9.9157 19.9174 9.73457 19.4536ZM14.8715 28.3609C14.8715 29.3366 15.1258 30.2534 15.5707 31.051C16.5178 32.7544 18.3354 33.908 20.42 33.908C22.5031 33.908 24.3208 32.7544 25.2695 31.051C25.7144 30.2534 25.9671 29.3366 25.9671 28.3609C25.9671 25.3008 23.4788 22.8125 20.4202 22.8125C17.3599 22.8125 14.8715 25.3008 14.8715 28.3609ZM32.9346 7.1187L26.9427 7.97358C25.465 8.18334 24.1256 8.9507 23.1976 10.1171C22.9306 10.4523 23.1866 10.9449 23.6139 10.9163L28.832 10.5859C30.5592 10.4763 32.1496 9.60718 33.173 8.21054L33.4018 7.89918C33.6607 7.54606 33.3668 7.05662 32.9346 7.1187ZM35.7532 18.9005L37.5948 23.7928C38.2032 25.4136 39.4999 26.6798 41.1349 27.252L41.5004 27.379C41.9135 27.5237 42.2948 27.0993 42.1104 26.7038L39.5412 21.2221C38.9087 19.8729 37.7839 18.8149 36.3967 18.2681C35.998 18.1109 35.6023 18.5001 35.7532 18.9005ZM83.0508 15.9357L83.0334 15.9261L68.6028 8.66782C67.1665 7.94494 65.6236 7.52702 64.0188 7.42526C60.3133 7.18846 56.5508 7.06926 52.8375 7.06926C49.8424 7.06926 46.8504 7.14718 43.8616 7.29966C42.6954 7.36014 41.5815 7.80494 40.6965 8.56926C38.2084 10.7206 35.6882 13.3075 35.9346 14.7883C36.3954 17.5483 78.5941 17.9408 81.5351 17.9646C81.6415 17.9662 81.7465 17.9456 81.8465 17.9059L82.9841 17.4529C83.653 17.1877 83.6927 16.2582 83.0508 15.9357ZM94.5388 22.8125C91.4801 22.8125 88.9918 25.3008 88.9918 28.3609C88.9918 29.3366 89.246 30.2534 89.691 31.051C90.638 32.7544 92.4558 33.908 94.5388 33.908C96.6234 33.908 98.4412 32.7544 99.3897 31.051C99.8346 30.2534 100.087 29.3366 100.087 28.3609C100.087 25.3008 97.5991 22.8125 94.5388 22.8125ZM106.406 22.428L104.123 19.5806C104.082 19.5297 104.025 19.4965 103.96 19.4853L98.9194 18.6256C98.6446 18.5781 98.4921 18.9307 98.7129 19.099L102.336 21.8526C102.364 21.8749 102.396 21.8907 102.429 21.8987L106.133 22.852C106.379 22.9158 106.567 22.6267 106.406 22.428Z" fill="#231F20"/>
</svg>
