<svg width="84" height="84" viewBox="0 0 84 84" fill="none" xmlns="http://www.w3.org/2000/svg">
<path fill-rule="evenodd" clip-rule="evenodd" d="M62.9178 57.9961C58.7999 60.3422 54.6655 62.6719 50.5147 64.9852C48.4147 66.15 46.3147 67.2985 44.2147 68.4797C43.3452 68.9719 42.4264 69.7594 41.4092 69.9399C40.3592 70.1203 39.3913 69.5953 38.4397 69.2344C35.9624 68.2664 33.4358 67.3313 30.9584 66.3797C29.4655 65.8055 30.0561 64.0336 30.8272 63.1805C31.91 61.9828 33.8295 63.0492 34.9616 63.5742C36.6842 64.3782 38.5053 64.8539 40.31 65.4282C44.3295 66.7242 48.5295 60.1946 44.7561 57.6188C43.3616 56.6836 41.36 56.2078 39.785 55.5844C36.3397 54.2227 32.878 52.8774 29.4655 51.4336C27.2014 50.482 24.9209 49.2352 22.46 48.9235C20.1795 48.6446 17.5381 49.0383 15.3397 49.6781C14.1256 50.0227 12.7475 50.6297 11.7795 51.45C11.1233 52.0078 10.5655 52.861 10.303 53.6813V72.0563C10.303 72.0563 10.4178 73.1063 11.4678 72.8602C14.5686 72.1383 18.26 72.3516 21.3444 73.0243C24.2483 73.6641 26.8897 75.2391 29.6295 76.3383C32.6647 77.5524 35.7819 78.5204 38.8499 79.6032C43.9194 81.3914 47.5288 77.0766 51.5483 74.8125C56.4538 72.0563 61.3428 69.2672 66.2319 66.511C67.0522 66.0516 67.8561 65.5922 68.6764 65.1328C69.9397 64.411 71.1538 61.7696 71.0225 60.4078C70.6452 56.175 65.6741 56.4211 62.9178 57.9961Z" fill="black"/>
<path fill-rule="evenodd" clip-rule="evenodd" d="M7.07109 53.632H2.95312C1.87031 53.632 0.984375 54.518 0.984375 55.6008V70.9078C0.984375 71.9907 1.87031 72.8766 2.95312 72.8766H7.07109C8.15391 72.8766 9.03984 71.9907 9.03984 70.9078V55.6008C9.03984 54.518 8.15391 53.632 7.07109 53.632ZM6.07031 58.1438C5.25 58.1438 4.59375 57.4875 4.59375 56.6672C4.59375 55.8469 5.25 55.1906 6.07031 55.1906C6.89062 55.1906 7.54688 55.8469 7.54688 56.6672C7.54688 57.4711 6.87422 58.1438 6.07031 58.1438Z" fill="black"/>
<path d="M83.0156 43.0172H14.1914V45.8226H83.0156V43.0172Z" fill="black"/>
<path fill-rule="evenodd" clip-rule="evenodd" d="M20.1305 41.5078C20.1797 41.0649 20.2618 40.3758 20.393 39.6539C20.4258 39.5063 20.4422 39.3586 20.475 39.1945C20.5079 39.0305 20.5407 38.8664 20.5899 38.7024C20.6719 38.3578 20.754 37.9805 20.836 37.5867C20.8852 37.3899 20.9344 37.1766 20.9836 36.9797C21.0493 36.7664 21.0985 36.5531 21.1641 36.3399C21.2954 35.8969 21.4266 35.4375 21.5579 34.9617C21.886 34.0102 22.2141 32.9766 22.6571 31.9266C22.7719 31.6641 22.8704 31.3852 22.9852 31.1227C23.1165 30.8602 23.2313 30.5813 23.3625 30.3188C23.4938 30.0399 23.625 29.7774 23.7399 29.4984C23.8711 29.2195 24.0188 28.957 24.1665 28.6781C24.3141 28.3992 24.4618 28.1203 24.6094 27.8414C24.7571 27.5625 24.9375 27.3 25.0852 27.0211C25.2493 26.7422 25.4133 26.4797 25.5774 26.2008C25.7579 25.9219 25.9383 25.6594 26.1188 25.3969C26.2993 25.1344 26.4797 24.8555 26.6602 24.593C26.8571 24.3305 27.054 24.068 27.2508 23.8055C27.6282 23.2805 28.0547 22.7719 28.4649 22.2797C28.6618 22.0172 28.8915 21.7875 29.1047 21.5414C29.318 21.2953 29.5477 21.0656 29.761 20.8195C29.9907 20.5899 30.2204 20.3602 30.4336 20.1305C30.6633 19.9008 30.8766 19.6711 31.1227 19.4578C31.3524 19.2445 31.5821 19.0313 31.8118 18.8016C32.0415 18.5883 32.2875 18.3914 32.5172 18.1781C32.9766 17.768 33.4688 17.3906 33.9282 17.0133C34.1579 16.8164 34.404 16.6524 34.6336 16.4719C34.8797 16.2914 35.1094 16.1109 35.3391 15.9633C35.8149 15.6352 36.2743 15.307 36.7336 15.0281C37.6524 14.4375 38.5547 13.9289 39.3915 13.4695C40.2282 13.0266 41.0157 12.6492 41.7211 12.3375C42.4266 12.0258 43.0501 11.7797 43.5586 11.5828C44.5922 11.1891 45.1993 11.0414 45.1993 11.0414C45.1993 11.0414 44.6086 11.2547 43.6243 11.7469C42.6399 12.2227 41.2618 12.9774 39.7032 14.0274C38.9321 14.5524 38.0954 15.143 37.2586 15.7992C36.8321 16.1274 36.4219 16.4883 35.979 16.8492C35.7657 17.0297 35.5524 17.2266 35.3391 17.4234C35.1258 17.6203 34.9125 17.8008 34.6993 18.0141C34.2891 18.4242 33.8461 18.8344 33.436 19.2774C33.2391 19.4906 33.0094 19.7039 32.8125 19.9336C32.6157 20.1633 32.4188 20.393 32.2055 20.6227C31.9922 20.8524 31.8118 21.082 31.6149 21.3281C31.418 21.5742 31.2211 21.8039 31.0407 22.05C30.8602 22.2961 30.6797 22.5422 30.4829 22.7883C30.3024 23.0344 30.1055 23.2805 29.9415 23.543C29.5969 24.068 29.236 24.5602 28.9407 25.1016C28.7766 25.3641 28.629 25.6266 28.4649 25.8891C28.3172 26.1516 28.1696 26.4305 28.0219 26.693C27.8743 26.9555 27.7266 27.218 27.5954 27.4969C27.4641 27.7758 27.3329 28.0383 27.218 28.3008C27.0868 28.5633 26.9555 28.8258 26.8407 29.1047C26.7258 29.3672 26.611 29.6461 26.5126 29.9086C26.3977 30.1711 26.2829 30.4336 26.1844 30.6961C26.086 30.9586 26.004 31.2211 25.9055 31.4836C25.8071 31.7461 25.725 32.0086 25.6266 32.2547C25.5446 32.5172 25.479 32.7633 25.3969 33.0258C25.0688 34.0266 24.8719 35.0109 24.6586 35.8969C24.5766 36.3563 24.4946 36.7828 24.429 37.193C24.3961 37.4063 24.3469 37.6031 24.3141 37.8C24.2813 37.9969 24.2649 38.1938 24.2321 38.3742C24.1829 38.7516 24.1336 39.0961 24.1008 39.4078C24.0844 39.5719 24.068 39.7195 24.0352 39.8672C24.0188 40.0149 24.0188 40.1625 24.0024 40.2938C23.9532 40.868 23.9204 41.2945 23.904 41.5899H80.3415C80.3415 41.4586 80.3415 41.3274 80.3415 41.1961C80.3415 23.543 66.7079 9.15469 49.6618 8.54766V6.62813C51.3352 6.46407 52.5493 5.93907 52.5493 5.33204C52.5493 4.59376 50.7446 3.98672 48.5297 3.98672C46.3149 3.98672 44.5102 4.59376 44.5102 5.33204C44.5102 5.93907 45.7243 6.46407 47.3977 6.62813V8.46563C30.3516 9.07266 16.718 23.4609 16.718 41.1141C16.718 41.2453 16.718 41.3766 16.718 41.5078H20.1305ZM61.4251 14.7164C61.6711 14.7984 61.9665 14.9297 62.2946 15.0774C62.6227 15.225 63.0001 15.4055 63.3938 15.6188C63.7876 15.832 64.2141 16.0781 64.6407 16.357C64.854 16.4883 65.0836 16.6524 65.2969 16.8C65.4118 16.882 65.5102 16.9641 65.6251 17.0461C65.7399 17.1281 65.8547 17.2102 65.9532 17.2922C66.1665 17.4727 66.3961 17.6531 66.6258 17.8336C66.7407 17.932 66.8555 18.0305 66.954 18.1289C67.0688 18.2274 67.1672 18.3258 67.2821 18.4406C67.3969 18.5391 67.4954 18.6539 67.6102 18.7524C67.7086 18.8672 67.8235 18.9656 67.9219 19.0805C68.0204 19.1953 68.1188 19.3102 68.2336 19.425C68.3321 19.5399 68.4469 19.6547 68.529 19.7695C68.7258 20.0156 68.9227 20.2453 69.1032 20.4914C69.2016 20.6227 69.2836 20.7375 69.3821 20.8688C69.4641 21 69.5462 21.1149 69.6446 21.2461C69.7266 21.3774 69.8086 21.4922 69.8907 21.6234C69.9727 21.7547 70.0383 21.8859 70.1204 22.0172C70.2024 22.1484 70.2844 22.2797 70.3501 22.4109C70.4157 22.5422 70.4813 22.6734 70.5633 22.8047C70.629 22.9359 70.711 23.0672 70.7602 23.1984C70.8258 23.3297 70.8751 23.4609 70.9407 23.5922C71.0063 23.7234 71.0555 23.8547 71.1211 23.9695C71.1704 24.1008 71.2196 24.232 71.2688 24.3469C71.4821 24.8391 71.6297 25.3313 71.7938 25.7742C71.8594 26.0039 71.9251 26.2172 71.9743 26.4305C72.0071 26.5289 72.0399 26.6273 72.0563 26.7258C72.0727 26.8242 72.1055 26.9227 72.1219 27.0211C72.1712 27.2016 72.204 27.382 72.2368 27.5461C72.2532 27.6281 72.2696 27.7102 72.286 27.7758C72.3024 27.8578 72.3188 27.9234 72.3188 27.9891C72.4172 28.5305 72.4665 29.0719 72.4665 29.0719L70.6454 29.0391C70.6454 29.0391 70.629 28.7602 70.5797 28.2516C70.5797 28.1859 70.5633 28.1203 70.5633 28.0547C70.5469 27.9891 70.5469 27.907 70.5305 27.8414C70.5141 27.6938 70.4977 27.5297 70.4649 27.3492C70.4485 27.2672 70.4485 27.1688 70.4321 27.0867C70.4157 26.9883 70.3993 26.9063 70.3829 26.8078C70.3501 26.6109 70.3172 26.4141 70.268 26.2008C70.1696 25.7906 70.0712 25.3149 69.9235 24.8555C69.8907 24.7406 69.8579 24.6094 69.8086 24.4945C69.7594 24.3797 69.7266 24.2484 69.6774 24.1336C69.6282 24.0188 69.5954 23.8875 69.5461 23.7563C69.4969 23.625 69.4477 23.5102 69.3985 23.3789C69.3493 23.2477 69.3001 23.1328 69.2344 23.0016C69.1852 22.8703 69.1196 22.7555 69.054 22.6242C68.9883 22.493 68.9391 22.3781 68.8735 22.2469C68.8079 22.1156 68.7422 22.0008 68.6766 21.8695C68.611 21.7383 68.5454 21.6234 68.4633 21.4922C68.3813 21.3774 68.3157 21.2461 68.2336 21.1149C68.086 20.8688 67.9219 20.6227 67.7579 20.3766C67.6758 20.2617 67.5938 20.1469 67.5118 20.0156C67.4297 19.9008 67.3313 19.7859 67.2493 19.6711C67.1508 19.5563 67.0688 19.4414 66.9704 19.3266C66.8719 19.2117 66.7899 19.0969 66.6915 18.9984C66.593 18.8836 66.4946 18.7852 66.4126 18.6703C66.3141 18.5555 66.2157 18.457 66.1172 18.3586C65.9204 18.1453 65.7235 17.9649 65.5266 17.768C65.4282 17.6695 65.3297 17.5875 65.2313 17.4891C65.1329 17.407 65.0344 17.3086 64.936 17.2266C64.7391 17.0625 64.5422 16.882 64.3454 16.7344C63.9516 16.4227 63.5579 16.1438 63.1969 15.8977C62.4586 15.4055 61.8188 15.0609 61.3594 14.8313C60.9001 14.6016 60.6211 14.5031 60.6211 14.5031C60.6211 14.5031 60.9493 14.5359 61.4251 14.7164Z" fill="black"/>
</svg>
