<svg width="78" height="80" viewBox="0 0 78 80" fill="none" xmlns="http://www.w3.org/2000/svg">
<path d="M69.875 36.7451C62.7071 36.7451 56.875 42.5772 56.875 49.7451V52.1192C53.9971 51.0906 48.4299 49.7451 39 49.7451C29.5701 49.7451 24.0045 51.0906 21.125 52.1192V49.7451C21.125 42.5772 15.2929 36.7451 8.125 36.7451C3.64488 36.7451 0 40.39 0 44.8701C0 48.1607 1.963 51.1069 5.00338 52.3727C5.91338 52.7546 6.5 53.637 6.5 54.6201L8.125 61.1201C8.125 66.9539 12.5434 71.772 18.2097 72.4171C16.8756 73.0541 15.9461 74.4061 15.9461 75.9824C15.9461 78.1696 17.7206 79.9441 19.9079 79.9441C22.0951 79.9441 23.8696 78.1696 23.8696 75.9824C23.8696 74.4646 23.0051 73.1614 21.7506 72.4951H56.2542C54.9997 73.1597 54.1353 74.463 54.1353 75.9824C54.1353 78.1696 55.9097 79.9441 58.097 79.9441C60.2842 79.9441 62.0587 78.1696 62.0587 75.9824C62.0587 74.4061 61.1292 73.0541 59.7951 72.4171C65.4566 71.772 69.875 66.9539 69.875 61.1201L71.5 54.6201C71.5 53.6354 72.0866 52.7546 72.9966 52.3727C76.037 51.1085 78 48.1607 78 44.8701C78 40.39 74.3551 36.7451 69.875 36.7451Z" fill="black"/>
<path d="M25.5937 45.9459C28.9754 45.3284 33.3775 44.8701 39 44.8701C44.6225 44.8701 49.0246 45.3284 52.4062 45.9459C53.6835 40.0634 57.8727 35.2631 63.3766 33.1067V24.4325C63.3766 10.971 52.4631 0.0574951 39 0.0574951C25.5385 0.0574951 14.625 10.971 14.625 24.4325V33.1084C20.1289 35.2647 24.3165 40.065 25.5937 45.9459Z" fill="black"/>
</svg>
