<svg width="98" height="98" viewBox="0 0 98 98" fill="none" xmlns="http://www.w3.org/2000/svg">
<path d="M36.75 53.0833C32.2461 53.0833 28.5833 56.7481 28.5833 61.25C28.5833 65.7519 32.2461 69.4167 36.75 69.4167C41.2539 69.4167 44.9167 65.7519 44.9167 61.25C44.9167 56.7481 41.2539 53.0833 36.75 53.0833ZM36.75 65.3333C34.498 65.3333 32.6667 63.504 32.6667 61.25C32.6667 58.996 34.498 57.1667 36.75 57.1667C39.002 57.1667 40.8333 58.996 40.8333 61.25C40.8333 63.504 39.002 65.3333 36.75 65.3333ZM17.7768 67.9732L30.0268 80.2232L27.1399 83.1101L14.8899 70.8601L17.7768 67.9732ZM96.6443 12.4011C97.4712 11.5722 98 10.4758 98 8.38921C98 2.97879 95.0988 0 89.8333 0C87.6345 0 86.5279 0.553292 85.6316 1.46796C85.5356 1.14538 85.3886 0.837083 85.1579 0.592083C84.3821 -0.163333 83.0142 -0.163333 82.2588 0.592083C81.8892 0.98 81.6667 1.51083 81.6667 2.04167C81.6667 2.59292 81.8892 3.10333 82.2588 3.49125C82.5936 3.80771 83.0448 3.99146 83.5001 4.0425C83.0305 4.53863 82.418 5.09804 81.585 5.72279C81.5033 5.33283 81.3482 4.96533 81.0746 4.67542C80.2988 3.92 78.9084 3.94042 78.1754 4.67542C77.8059 5.06333 77.5833 5.57375 77.5833 6.125C77.5833 6.65583 77.8059 7.18667 78.1754 7.57458C78.3673 7.75629 78.594 7.90125 78.839 8.00333C78.3898 8.47292 77.9202 8.99763 77.4567 9.59379C77.3567 9.28754 77.2118 8.9915 76.9892 8.75875C76.2338 8.00333 74.8455 8.00333 74.09 8.75875C73.7225 9.14667 73.5 9.6775 73.5 10.2083C73.5 10.7596 73.7225 11.27 74.0921 11.6579C74.478 12.0254 75.0108 12.25 75.5417 12.25C75.6356 12.25 75.7254 12.2071 75.8173 12.1949C75.4314 12.9932 75.1476 13.8017 75.07 14.5795C75.0231 15.0736 75.066 15.4963 75.1476 15.8842L50.4435 40.5883C46.9236 38.2098 42.875 36.75 38.7917 36.75C28.1485 36.75 26.5253 43.808 25.6515 47.5994C25.48 48.3487 25.2432 49.3777 25.0982 49.5982C24.3285 50.3679 21.558 50.8763 19.112 51.3255C11.5028 52.7158 0 54.8228 0 69.3758C0 82.7508 15.2492 98 28.6242 98C43.1772 98 45.2842 86.4993 46.6766 78.888C47.1237 76.4441 47.6321 73.6715 48.3569 72.9426C48.6223 72.7568 49.6493 72.52 50.3985 72.3485C54.192 71.4747 61.25 69.8515 61.25 59.2083C61.25 55.125 59.7902 51.0784 57.4117 47.5565L82.1077 22.8646C82.3649 22.9157 82.6405 22.9524 82.9448 22.9524C83.0979 22.9524 83.2571 22.9443 83.4245 22.9279C84.2004 22.8524 85.0089 22.5686 85.8051 22.1827C85.7929 22.2746 85.75 22.3644 85.75 22.4583C85.75 22.9892 85.9725 23.52 86.3421 23.9079C86.728 24.2754 87.2608 24.5 87.7917 24.5C88.3225 24.5 88.8533 24.2754 89.2412 23.9079C89.6087 23.52 89.8333 22.9892 89.8333 22.4583C89.8333 21.9275 89.6087 21.3967 89.2412 21.0088C89.0085 20.776 88.7104 20.6392 88.396 20.5514C88.9942 20.0859 89.523 19.6143 89.9926 19.1631C90.0967 19.4081 90.2417 19.6306 90.4254 19.8246C90.8113 20.1921 91.3442 20.4167 91.875 20.4167C92.4058 20.4167 92.9367 20.1921 93.3246 19.8246C93.6921 19.4367 93.9167 18.9058 93.9167 18.375C93.9167 17.8442 93.6921 17.3133 93.3246 16.9254C93.0347 16.6437 92.661 16.5048 92.2691 16.4313C92.904 15.5922 93.4655 14.9879 93.9636 14.5305C94.0188 14.9858 94.1943 15.4125 94.5088 15.7413C94.8946 16.1088 95.4275 16.3333 95.9583 16.3333C96.4892 16.3333 97.02 16.1088 97.4079 15.7413C97.7754 15.3533 98 14.8225 98 14.2917C98 13.7608 97.7754 13.23 97.4079 12.8421C97.1915 12.6318 96.9261 12.493 96.6443 12.4011ZM49.4839 68.3673C47.8669 68.7388 46.4683 69.0614 45.5149 70.0149C43.8448 71.685 43.3221 74.5413 42.6606 78.153C41.307 85.5418 39.7737 93.9167 28.6242 93.9167C17.3868 93.9167 4.08333 80.6132 4.08333 69.3758C4.08333 58.2243 12.4583 56.691 19.8491 55.3394C23.4628 54.6779 26.315 54.1552 27.9851 52.4851C28.9386 51.5317 29.2612 50.1352 29.6328 48.5182C30.5005 44.739 31.3988 40.8333 38.7917 40.8333C47.8934 40.8333 57.1667 50.1066 57.1667 59.2083C57.1667 66.6012 53.261 67.4995 49.4839 68.3673ZM54.8433 44.3532C54.4574 43.9408 54.0592 43.5447 53.6468 43.1568L77.5833 19.2202L78.7797 20.4167L54.8433 44.3532ZM83.1101 18.9732C83.1081 18.9712 83.1101 18.9712 83.1101 18.9732V18.9732ZM93.1021 10.0287C91.9812 10.8045 90.2866 11.9744 88.1367 15.2002C87.4323 16.2578 84.1922 18.9201 82.9958 18.8589L79.1391 15.0022C79.0921 13.8486 81.7402 10.5697 82.7978 9.86329C85.944 7.7665 87.1771 6.10458 87.9918 5.00617C88.6798 4.08333 88.6798 4.08333 89.8333 4.08333C92.8101 4.08333 93.9167 5.25117 93.9167 8.38921C93.9167 9.46721 93.9167 9.46721 93.1021 10.0287Z" fill="black"/>
</svg>
