<svg width="74" height="70" viewBox="0 0 74 70" fill="none" xmlns="http://www.w3.org/2000/svg">
<path d="M1.56255 36.3125C2.10734 36.6818 2.76584 36.845 3.42003 36.7728C4.07422 36.7007 4.68133 36.3979 5.13255 35.9187L5.50005 35.6037V66.185C5.50005 66.9647 5.8098 67.7125 6.36115 68.2639C6.91251 68.8152 7.66031 69.125 8.44005 69.125H13.3094C13.6639 69.125 14.0148 69.055 14.3421 68.9189C14.6694 68.7829 14.9666 68.5835 15.2166 68.3323C15.4667 68.0811 15.6646 67.7829 15.799 67.4549C15.9335 67.127 16.0018 66.7757 16 66.4212V49.0437C16.0035 47.4065 16.6564 45.8375 17.8153 44.681C18.9743 43.5245 20.5447 42.875 22.1819 42.875H25.5813C27.2163 42.8785 28.7833 43.5295 29.9394 44.6856C31.0955 45.8417 31.7466 47.4088 31.75 49.0437V66.4212C31.7483 66.7757 31.8166 67.127 31.9511 67.4549C32.0855 67.7829 32.2834 68.0811 32.5335 68.3323C32.7835 68.5835 33.0807 68.7829 33.408 68.9189C33.7353 69.055 34.0862 69.125 34.4407 69.125H65.56C65.9461 69.125 66.3284 69.049 66.6851 68.9012C67.0418 68.7534 67.3659 68.5369 67.6389 68.2639C67.9119 67.9909 68.1285 67.6668 68.2763 67.3101C68.424 66.9534 68.5 66.5711 68.5 66.185V35.6037L69.0119 36.1156C69.2575 36.3595 69.5488 36.5526 69.869 36.684C70.1893 36.8153 70.5323 36.8823 70.8784 36.881C71.2245 36.8798 71.567 36.8104 71.8863 36.6769C72.2057 36.5433 72.4955 36.3481 72.7394 36.1025C72.9833 35.8569 73.1764 35.5656 73.3078 35.2454C73.4391 34.9251 73.5061 34.5822 73.5048 34.236C73.5036 33.8899 73.4342 33.5474 73.3007 33.2281C73.1671 32.9088 72.9719 32.6189 72.7263 32.375L44.1663 3.84124C42.2643 1.94333 39.687 0.877441 37 0.877441C34.3131 0.877441 31.7358 1.94333 29.8338 3.84124L1.2738 32.375C1.01149 32.6413 0.809063 32.9605 0.680071 33.3113C0.551079 33.6621 0.498493 34.0364 0.525829 34.4092C0.553166 34.782 0.659795 35.1446 0.838584 35.4728C1.01737 35.8011 1.2642 36.0873 1.56255 36.3125ZM51.4375 42.875C51.4375 42.8541 51.4458 42.8341 51.4606 42.8193C51.4754 42.8045 51.4954 42.7962 51.5163 42.7962H55.375C56.0712 42.7962 56.7389 43.0728 57.2312 43.5651C57.7235 44.0574 58 44.725 58 45.4212V49.2669C58 49.2878 57.9917 49.3078 57.977 49.3226C57.9622 49.3373 57.9422 49.3456 57.9213 49.3456H51.5163C51.4954 49.3456 51.4754 49.3373 51.4606 49.3226C51.4458 49.3078 51.4375 49.2878 51.4375 49.2669V42.875ZM51.4375 52.0625C51.4375 52.0416 51.4458 52.0216 51.4606 52.0068C51.4754 51.992 51.4954 51.9837 51.5163 51.9837H57.9213C57.9316 51.9837 57.9419 51.9858 57.9514 51.9897C57.961 51.9937 57.9697 51.9995 57.977 52.0068C57.9843 52.0141 57.9901 52.0228 57.9941 52.0324C57.998 52.0419 58 52.0522 58 52.0625V56C58 56.6962 57.7235 57.3639 57.2312 57.8562C56.7389 58.3484 56.0712 58.625 55.375 58.625H51.5163C51.4954 58.625 51.4754 58.6167 51.4606 58.6019C51.4458 58.5872 51.4375 58.5671 51.4375 58.5462V52.0625ZM42.25 45.5C42.25 44.8038 42.5266 44.1361 43.0189 43.6438C43.5112 43.1516 44.1789 42.875 44.875 42.875H48.7207C48.7416 42.875 48.7616 42.8833 48.7764 42.8981C48.7911 42.9128 48.7994 42.9329 48.7994 42.9537V49.3587C48.7994 49.3796 48.7911 49.3997 48.7764 49.4144C48.7616 49.4292 48.7416 49.4375 48.7207 49.4375H42.3288C42.3185 49.4375 42.3082 49.4355 42.2987 49.4315C42.2891 49.4275 42.2804 49.4217 42.2731 49.4144C42.2658 49.4071 42.26 49.3984 42.256 49.3889C42.2521 49.3793 42.25 49.3691 42.25 49.3587V45.5ZM42.25 52.0625C42.25 52.0522 42.2521 52.0419 42.256 52.0324C42.26 52.0228 42.2658 52.0141 42.2731 52.0068C42.2804 51.9995 42.2891 51.9937 42.2987 51.9897C42.3082 51.9858 42.3185 51.9837 42.3288 51.9837H48.7338C48.7547 51.9837 48.7747 51.992 48.7895 52.0068C48.8042 52.0216 48.8125 52.0416 48.8125 52.0625V58.4675C48.8125 58.4884 48.8042 58.5084 48.7895 58.5232C48.7747 58.5379 48.7547 58.5462 48.7338 58.5462H44.875C44.1789 58.5462 43.5112 58.2697 43.0189 57.7774C42.5266 57.2851 42.25 56.6174 42.25 55.9212V52.0625Z" fill="black"/>
</svg>
