<svg width="102" height="58" viewBox="0 0 102 58" fill="none" xmlns="http://www.w3.org/2000/svg">
<g clip-path="url(#clip0_218_3321)">
<path d="M91.0747 53.6053H10.5282H0C0 53.6053 0 57.05 3.43512 57.05C6.87975 57.05 94.7183 57.05 98.1597 57.05C101.614 57.05 101.614 53.6053 101.614 53.6053H91.0747Z" fill="black"/>
<path d="M91.0747 51.6538C91.1973 51.3419 91.2817 50.9948 91.2817 50.6287V2.74427C91.2817 1.23525 90.0353 0 88.5214 0H13.0783C11.566 0 10.3245 1.23525 10.3245 2.74427V50.6287C10.3245 50.9948 10.404 51.3419 10.5282 51.6538H91.0747ZM14.686 4.34241H86.917V47.6521H14.686V4.34241Z" fill="black"/>
</g>
<defs>
<clipPath id="clip0_218_3321">
<rect width="101.614" height="57.05" fill="white"/>
</clipPath>
</defs>
</svg>
