<svg width="84" height="86" viewBox="0 0 84 86" fill="none" xmlns="http://www.w3.org/2000/svg">
<path d="M37.2997 15.3087C37.2358 15.1654 37.2009 15.0065 37.2009 14.8515L37.2203 12.4296L36.9394 12.2068L33.5972 21.0534C33.4461 21.4487 33.0682 21.7161 32.6401 21.718C32.6362 21.718 32.6323 21.718 32.6323 21.718C32.208 21.718 31.8341 21.4642 31.6752 21.0728L26.3955 7.93268L11.9882 12.9663C11.6666 13.0767 11.4244 13.3344 11.3334 13.6619L0.328369 40.3529L15.5513 47.0644C15.5784 47.0683 15.5997 47.0896 15.623 47.0973L17.1517 44.3306L15.9485 77.332C15.9369 77.489 15.9717 77.6536 16.0434 77.797C16.1752 78.0954 19.6007 85.0685 38.7645 85.0685C39.3767 85.0685 40.0239 85.051 40.6574 85.0355C38.1871 71.9283 40.5664 28.1098 40.8647 22.7022L37.2997 15.3087Z" fill="black"/>
<path d="M38.8924 11.116C39.1462 11.3175 39.2934 11.6159 39.2896 11.9356L39.2663 14.6268L41.7599 19.7979L43.6857 14.7178L43.4261 12.0286C43.3912 11.6779 43.5346 11.3369 43.8078 11.116L45.5147 9.7772L51.9666 2.0117C48.2815 0.775572 44.5615 0.120697 40.9035 0.120697C35.7691 0.120697 32.1363 1.3452 30.6328 1.95938L37.1951 9.77332L38.8924 11.116Z" fill="black"/>
<path d="M51.3601 18.6199L55.0007 6.14245C55.0413 6.02426 55.1014 5.93513 55.1595 5.84213L53.6115 3.26138L47.4561 10.6665L51.3601 18.6199Z" fill="black"/>
<path d="M35.2943 10.7227L29.1369 3.38733L27.9531 6.26839L32.6031 17.845L35.2943 10.7227Z" fill="black"/>
<path d="M71.3747 13.6619C71.2875 13.3422 71.0569 13.0865 70.7392 12.9702L56.6806 7.74091L52.6041 21.749C52.4763 22.1559 52.1236 22.4485 51.6935 22.4872C51.6606 22.4892 51.6393 22.4892 51.6025 22.4892C51.213 22.4892 50.8507 22.2683 50.6763 21.9098L45.8752 12.1177L45.5342 12.389L45.7609 14.7566C45.7725 14.9155 45.7493 15.0743 45.7008 15.2216L42.9515 22.4756C42.7888 25.3625 40.1654 72.5154 42.7578 84.9755C47.3768 84.7817 62.2083 83.7297 66.6878 77.9927C66.8351 77.8067 66.9107 77.5665 66.899 77.3223L65.5796 44.4197L67.1548 47.3105C67.178 47.3008 67.1974 47.2814 67.2342 47.2737L83.0171 40.2212L71.3747 13.6619ZM44.4918 67.7802C43.744 67.7802 43.1375 67.1737 43.1375 66.4278C43.1375 65.6799 43.744 65.0735 44.4918 65.0735C45.2378 65.0735 45.8365 65.6799 45.8365 66.4278C45.8365 67.1737 45.2378 67.7802 44.4918 67.7802ZM44.6236 56.1707C43.8776 56.1707 43.2654 55.5642 43.2654 54.8183C43.2654 54.0723 43.8757 53.4659 44.6236 53.4659C45.3656 53.4659 45.9643 54.0723 45.9643 54.8183C45.9643 55.5642 45.3598 56.1707 44.6236 56.1707ZM44.7418 46.1576C43.9939 46.1576 43.3913 45.5493 43.3913 44.8053C43.3913 44.0574 43.9958 43.4529 44.7418 43.4529C45.4877 43.4529 46.0941 44.0593 46.0941 44.8053C46.0941 45.5493 45.4877 46.1576 44.7418 46.1576ZM45.1932 34.5482C44.4434 34.5482 43.837 33.9378 43.837 33.1958C43.837 32.4479 44.4434 31.8376 45.1932 31.8376C45.9411 31.8376 46.5398 32.4479 46.5398 33.1958C46.5456 33.9359 45.9411 34.5482 45.1932 34.5482ZM45.8345 23.7059C45.0925 23.7059 44.4802 23.0975 44.4802 22.3535C44.4802 21.6095 45.0925 21.0031 45.8345 21.0031C46.5805 21.0031 47.1888 21.6095 47.1888 22.3535C47.1888 23.0975 46.5785 23.7059 45.8345 23.7059Z" fill="black"/>
</svg>
