<svg width="104" height="104" viewBox="0 0 104 104" fill="none" xmlns="http://www.w3.org/2000/svg">
<path d="M48.6525 23.335C48.3763 24.4887 47.0275 24.4887 46.605 25.5125C46.3033 26.3916 46.1935 27.3251 46.2832 28.2502C46.373 29.1752 46.66 30.0703 47.125 30.875C50.375 36.0262 51.4313 41.2425 49.8063 44.9312C49.1563 46.41 48.7988 46.7025 48.5875 46.5562C48.1287 46.0588 47.5419 45.6971 46.8913 45.5108C46.2407 45.3245 45.5513 45.3207 44.8988 45.5C44.1075 45.7078 43.4238 46.2064 42.984 46.8962C42.5443 47.586 42.3808 48.4162 42.5263 49.2213C43.0625 53.82 35.2625 63.8462 31.4438 42.8187C30.3225 36.6762 31.3463 30.29 35.945 25.7887C39 22.75 41.5188 22.3275 45.5 21.3525C46.735 21.06 48.8963 21.58 48.6363 23.2212L48.6525 23.335Z" fill="#9A9A9A"/>
<path d="M50.7162 49.8388C50.7916 50.4779 51.055 51.0804 51.4732 51.5696C51.8913 52.0589 52.4453 52.413 53.0649 52.5871C53.6846 52.7611 54.3419 52.7473 54.9537 52.5473C55.5654 52.3473 56.104 51.9702 56.5012 51.4638C56.1968 53.3372 55.3776 55.0892 54.1351 56.5239C52.8926 57.9587 51.2757 59.0198 49.4649 59.5888C47.4548 60.1648 45.3128 60.0793 43.3549 59.345C41.7586 58.9078 40.3808 57.8947 39.4874 56.5013C38.1549 54.21 38.1712 50.0013 41.1124 48.9775C42.2662 48.555 44.0374 48.815 44.3624 50.18C44.517 50.9 44.9115 51.5461 45.4813 52.0126C46.0511 52.479 46.7624 52.7381 47.4987 52.7475C48.2947 52.7537 49.0653 52.4677 49.6643 51.9435C50.2634 51.4193 50.6492 50.6935 50.7487 49.9038" fill="#45484A"/>
<path d="M43.3388 48.75C43.3141 49.7668 43.6859 50.7534 44.3756 51.501C45.0654 52.2485 46.0189 52.6984 47.0344 52.7554C48.0499 52.8124 49.0478 52.472 49.8169 51.8064C50.5859 51.1407 51.0658 50.202 51.155 49.1888C51.155 49.0425 51.155 48.8963 51.155 48.75" stroke="black" stroke-width="2" stroke-linecap="round" stroke-linejoin="round"/>
<path d="M67.6325 72.1662C68.9325 70.5412 70.5738 68.4612 68.3638 68.3312C65.1138 68.1362 56.8913 69.095 60.1413 81.3313C60.1413 81.3313 58.4025 84.76 65.2113 87.4575C72.0201 90.155 67.4375 87.1 67.4375 87.1C68.5588 86.6613 71.0288 85.5888 70.8988 84.0938C70.8013 82.9563 68.8025 82.1113 68.1038 81.3313C67.1661 80.3284 66.5194 79.089 66.2331 77.7463C65.9468 76.4035 66.0317 75.0081 66.4788 73.71C66.8063 73.1551 67.1931 72.6375 67.6325 72.1662Z" fill="#9A9A9A"/>
<path d="M36.1887 72.1662C37.4887 70.5412 39.1299 68.4612 36.9199 68.3312C33.6699 68.1362 25.4474 69.095 28.6974 81.3313C28.6974 81.3313 26.9587 84.76 33.7674 87.4575C40.5762 90.155 35.9937 87.1 35.9937 87.1C37.1149 86.6613 39.5849 85.5888 39.4549 84.0938C39.3574 82.9563 37.3587 82.1113 36.6599 81.3313C35.7223 80.3284 35.0755 79.089 34.7892 77.7463C34.5029 76.4035 34.5879 75.0081 35.0349 73.71C35.3624 73.1551 35.7493 72.6375 36.1887 72.1662Z" fill="#9A9A9A"/>
<path d="M58.8737 81.38C57.6505 81.8204 56.3797 82.1149 55.0875 82.2575C54.268 82.3578 53.443 82.4066 52.6175 82.4038H49.725C47.994 82.4358 46.2683 82.2057 44.6062 81.7213" stroke="black" stroke-width="2" stroke-linecap="round" stroke-linejoin="round"/>
<path d="M75.6112 73.125C76.7875 73.1763 77.9615 72.9817 79.0584 72.5536C80.1552 72.1255 81.1507 71.4733 81.9812 70.6388C83.5818 69.0308 84.4804 66.8544 84.4804 64.5856C84.4804 62.3168 83.5818 60.1404 81.9812 58.5325L70.9149 47.4662C70.7849 47.84 70.6387 48.1975 70.4924 48.555" stroke="black" stroke-width="2" stroke-linecap="round" stroke-linejoin="round"/>
<path d="M22.3276 72.02C21.1688 71.3804 20.174 70.4809 19.4214 69.3922C18.6688 68.3034 18.1788 67.055 17.9898 65.745C17.8009 64.435 17.9181 63.099 18.3324 61.8419C18.7467 60.5849 19.4468 59.441 20.3776 58.5L31.4438 47.4175" stroke="black" stroke-width="2" stroke-linecap="round" stroke-linejoin="round"/>
<path d="M58.8738 81.38V75.595C58.8782 73.5026 59.647 71.484 61.0356 69.9188C62.4242 68.3537 64.3368 67.3499 66.4138 67.0962C66.7546 67.072 67.0967 67.072 67.4375 67.0962C68.8259 67.0946 70.1933 67.435 71.4188 68.0875C72.1817 68.4866 72.878 69.0019 73.4825 69.615C74.4683 70.5935 75.1992 71.7986 75.6113 73.125C75.8748 73.9496 76.0064 74.8106 76.0013 75.6763V79.3163C75.963 81.5636 75.0443 83.7061 73.4429 85.2832C71.8415 86.8603 69.6852 87.7461 67.4375 87.75C65.8662 87.7526 64.325 87.3194 62.985 86.4988" stroke="black" stroke-width="2" stroke-linecap="round" stroke-linejoin="round"/>
<path d="M40.2188 86.71C38.9439 87.4269 37.5052 87.802 36.0426 87.7987C33.7726 87.7945 31.5969 86.8908 29.9918 85.2857C28.3867 83.6807 27.4831 81.5049 27.4788 79.235V75.595C27.4754 74.6884 27.6237 73.7876 27.9176 72.93C28.4808 71.218 29.5687 69.7269 31.0271 68.6681C32.4856 67.6093 34.2403 67.0366 36.0426 67.0312V67.0312C38.3112 67.0398 40.4844 67.9448 42.0886 69.549C43.6928 71.1531 44.5978 73.3264 44.6063 75.595V81.7213" stroke="black" stroke-width="2" stroke-linecap="round" stroke-linejoin="round"/>
<path d="M33.7188 53.3488C31.6225 54.2913 29.2013 55.445 28.2913 57.72C27.5113 59.6862 28.5675 63.1475 30.7613 63.7812C31.167 63.8701 31.5897 63.8419 31.98 63.7C33.9804 62.84 36.1687 62.5098 38.3338 62.7412C40.2917 63.1308 42.0803 64.1188 43.4525 65.5687C44.1585 66.2755 44.7951 67.0482 45.3538 67.8762C45.7481 68.7191 46.3957 69.4179 47.2063 69.875C48.085 70.1809 49.0413 70.1809 49.92 69.875C53.5275 68.8025 56.9075 67.5837 58.8738 64.09C60.4013 61.3762 57.2488 61.1162 57.2488 61.1162L51.1388 62.14L33.7188 53.3488Z" fill="#45484A"/>
<path d="M51.1711 48.75C51.1711 48.8962 51.1711 49.0425 51.1711 49.1888C51.2863 50.1468 51.7483 51.0295 52.4698 51.6702C53.1913 52.3109 54.1225 52.6652 55.0874 52.6662C55.7044 52.6665 56.3125 52.5191 56.8609 52.2364C57.4093 51.9537 57.8821 51.5439 58.2399 51.0412C58.7415 50.3823 59.0152 49.5781 59.0199 48.75" stroke="black" stroke-width="2" stroke-linecap="round" stroke-linejoin="round"/>
<path d="M44.525 25.4313C44.6355 25.8414 44.6397 26.2729 44.5374 26.6851C44.4351 27.0973 44.2295 27.4767 43.94 27.7875C42.7538 29.4125 41.145 30.7775 39.845 32.3538C37.7099 34.8726 36.49 38.0397 36.3838 41.34C36.3838 42.7538 36.5625 44.1838 36.4975 45.5975C36.5319 46.0269 36.4541 46.4578 36.2718 46.8481C36.0895 47.2384 35.8089 47.5746 35.4575 47.8238C35.0943 47.9487 34.7059 47.9829 34.3264 47.9234C33.9469 47.864 33.5877 47.7126 33.28 47.4825C32.5283 47.0716 31.9128 46.4504 31.5088 45.695C31.1608 44.7844 31.0327 43.8045 31.135 42.835L31.395 33.085C31.3828 32.8615 31.4169 32.6378 31.4952 32.4281C31.5735 32.2184 31.6943 32.0271 31.85 31.8663L35.1 27.7225L36.725 25.61C37.2125 24.9925 37.505 24.3263 38.35 24.3588C39.975 24.3588 41.8925 23.7413 43.5013 24.5375C43.9379 24.7043 44.3009 25.0211 44.525 25.4313Z" fill="#45484A"/>
<path d="M54.7462 45.5813C54.7462 46.5266 54.3718 47.4335 53.7048 48.1034C53.0379 48.7734 52.1327 49.152 51.1874 49.1563C50.481 49.153 49.7915 48.9407 49.2057 48.5459C48.6199 48.1511 48.1642 47.5917 47.8962 46.9381C47.6281 46.2846 47.5596 45.5663 47.6993 44.8739C47.8391 44.1815 48.1809 43.546 48.6815 43.0477C49.1821 42.5493 49.8191 42.2104 50.5122 42.0738C51.2052 41.9372 51.9232 42.0089 52.5755 42.28C53.2278 42.551 53.7852 43.0092 54.1773 43.5968C54.5694 44.1843 54.7787 44.8749 54.7787 45.5813H54.7462Z" fill="black"/>
<path d="M58.5 20.7675C58.8962 19.4714 59.6103 18.295 60.5773 17.3454C61.5443 16.3958 62.7335 15.7032 64.0366 15.3307C65.3397 14.9581 66.7152 14.9174 68.0381 15.2124C69.3609 15.5073 70.5889 16.1284 71.6103 17.0192C72.6318 17.91 73.4141 19.0421 73.8862 20.3125C74.3583 21.5829 74.5051 22.9512 74.3133 24.2929C74.1214 25.6345 73.597 26.9069 72.7877 27.994C71.9785 29.0812 70.9102 29.9487 69.68 30.5175" stroke="black" stroke-width="2" stroke-linecap="round" stroke-linejoin="round"/>
<path d="M31.4436 47.3687C30.4751 44.6351 30.0847 41.7302 30.2973 38.8379C30.5099 35.9455 31.3208 33.1289 32.6786 30.5662C35.0697 26.0915 39.0035 22.6367 43.7495 20.8435C48.4955 19.0503 53.731 19.0406 58.4836 20.8162" stroke="black" stroke-width="2" stroke-linecap="round" stroke-linejoin="round"/>
<path d="M64.4638 24.2125C67.798 26.9383 70.211 30.6255 71.3741 34.772C72.5372 38.9186 72.3939 43.3228 70.9638 47.385C70.8338 47.7587 70.6876 48.1162 70.5413 48.4737C69.1173 51.8784 66.8184 54.846 63.8776 57.0757C60.9368 59.3054 57.4588 60.7179 53.7961 61.1699C50.1334 61.622 46.4163 61.0976 43.0216 59.6498C39.627 58.2021 36.6754 55.8825 34.4663 52.9262C34.2172 52.6012 33.9842 52.2654 33.7676 51.9187" stroke="black" stroke-width="2" stroke-linecap="round" stroke-linejoin="round"/>
<path d="M28.9574 26.3738C28.2634 24.7175 28.1377 22.878 28.5999 21.1427C29.062 19.4075 30.0861 17.8742 31.5119 16.7825C32.9378 15.6909 34.6851 15.1023 36.4808 15.1089C38.2766 15.1154 40.0196 15.7167 41.4374 16.8188" stroke="black" stroke-width="2" stroke-linecap="round" stroke-linejoin="round"/>
</svg>
